<?xml version="1.0" standalone="no"?>
<!DOCTYPE svg PUBLIC "-//W3C//DTD SVG 20010904//EN"
 "http://www.w3.org/TR/2001/REC-SVG-20010904/DTD/svg10.dtd">
<svg version="1.0" xmlns="http://www.w3.org/2000/svg"
 width="237.000000pt" height="300.000000pt" viewBox="0 0 237.000000 300.000000"
 preserveAspectRatio="xMidYMid meet">

<g transform="translate(0.000000,300.000000) scale(0.100000,-0.100000)"
fill="#000000" stroke="none">
<path d="M1110 2949 c-11 -24 -20 -54 -20 -67 0 -36 -16 -17 -29 34 -16 62
-25 50 -13 -17 6 -30 9 -55 7 -57 -1 -2 -28 4 -58 13 -31 9 -88 17 -129 18
-104 2 -155 -27 -283 -157 -189 -193 -298 -423 -312 -654 -7 -110 -3 -117 98
-167 89 -45 221 -82 345 -97 l102 -12 -82 -31 c-101 -38 -158 -71 -236 -136
-44 -36 -59 -55 -55 -68 3 -12 -3 -22 -20 -31 -42 -23 -154 -147 -142 -159 13
-13 2 -41 -16 -41 -8 0 -20 7 -27 15 -10 12 -10 18 1 33 13 15 12 16 -3 3 -10
-7 -18 -20 -18 -27 0 -21 -20 -17 -61 12 -21 14 -46 24 -56 22 -24 -4 -28 -39
-9 -76 15 -28 14 -30 -24 -67 -70 -69 -90 -143 -35 -133 29 6 28 7 15 -26 -15
-39 -3 -59 32 -52 19 4 27 2 23 -5 -9 -14 14 -39 37 -39 11 0 27 14 39 35 26
44 36 44 45 0 13 -70 64 -68 64 3 0 28 9 45 48 86 26 28 53 50 60 50 9 -2 8 3
-3 16 -20 22 -12 40 17 40 16 0 19 -5 16 -25 -3 -13 -1 -22 3 -19 5 3 9 14 9
24 0 13 20 29 65 53 l65 35 0 -67 c0 -85 14 -134 49 -173 24 -27 36 -32 90
-36 l61 -4 0 -92 c1 -125 22 -266 44 -278 12 -7 16 -24 16 -71 0 -83 -6 -99
-41 -119 -37 -22 -39 -55 -3 -68 14 -6 29 -8 34 -5 4 3 13 -2 20 -10 16 -20
34 -19 51 2 13 15 12 15 -8 3 -19 -12 -24 -12 -41 3 -10 9 -31 17 -45 17 -20
0 -27 5 -27 20 0 35 35 44 102 25 51 -14 70 -15 122 -5 l61 11 2 57 c4 94 12
122 32 122 27 0 39 20 43 70 4 59 31 64 36 7 3 -29 9 -40 27 -47 24 -9 24 -11
19 -92 -5 -58 -11 -87 -22 -95 -14 -11 -12 -13 11 -13 15 0 47 -5 71 -12 35
-9 59 -9 114 2 84 15 126 8 119 -20 -3 -11 -1 -20 4 -20 5 0 9 9 9 20 0 23
-28 40 -64 40 -30 0 -29 -4 -15 93 9 62 15 77 34 85 17 8 24 22 29 57 3 26 18
84 32 129 17 52 28 114 31 172 5 86 7 93 31 103 24 11 24 14 17 69 -9 62 -9
66 1 164 l6 67 40 -16 c32 -13 44 -13 62 -3 18 9 33 9 75 -4 29 -8 87 -18 129
-22 58 -5 80 -12 90 -26 7 -10 32 -28 55 -39 23 -12 57 -39 75 -60 42 -49 75
-52 74 -9 0 3 -3 14 -6 26 -6 19 -2 20 41 20 40 -1 48 2 45 17 -2 11 4 17 18
17 27 0 25 18 -7 52 l-27 28 37 0 c71 0 56 43 -30 86 -32 16 -59 29 -61 30 -1
0 5 15 14 32 11 24 13 36 4 52 -14 26 -28 25 -56 -1 -13 -12 -49 -32 -80 -45
l-57 -23 -50 44 c-27 24 -78 56 -113 72 -35 15 -64 33 -64 39 0 27 -228 117
-336 132 l-47 7 69 28 c38 16 98 40 134 54 129 49 278 151 398 273 67 68 122
154 122 190 0 27 -65 152 -112 215 -214 289 -614 498 -795 416 -23 -11 -65
-42 -94 -70 -29 -28 -55 -51 -57 -51 -7 0 9 94 20 113 5 10 7 21 4 24 -3 3
-15 -14 -26 -38z m140 -460 l51 -51 92 25 c51 14 108 28 127 32 l35 6 -25 -16
c-18 -12 -19 -15 -5 -10 72 24 134 13 179 -32 47 -47 30 -95 -43 -118 -22 -7
-23 -5 -16 25 15 70 -34 120 -115 116 -37 -2 -47 -7 -62 -32 -24 -39 -23 -95
3 -128 27 -34 75 -35 164 -2 80 29 105 50 105 87 0 48 -47 90 -116 104 l-59
12 83 8 c83 7 84 7 113 -21 77 -73 115 -218 86 -327 -63 -238 -317 -387 -662
-387 -186 0 -286 31 -366 111 -104 104 -143 321 -65 357 22 10 25 19 28 69 l3
58 23 -43 22 -42 58 29 c94 47 105 47 62 2 -47 -49 -59 -104 -35 -150 19 -38
44 -40 161 -11 140 33 176 59 155 111 -22 58 -88 98 -163 100 l-43 1 40 13
c22 7 66 16 98 20 31 4 59 11 62 14 2 4 -7 33 -20 64 -12 31 -19 57 -14 57 4
0 31 -23 59 -51z m324 -75 c18 -7 12 -24 -10 -24 -8 0 -14 7 -14 15 0 17 2 18
24 9z m-419 -77 c47 -26 84 -89 65 -112 -10 -12 -91 -45 -113 -45 -4 0 1 12
12 26 35 45 21 112 -30 140 l-24 13 25 0 c14 1 43 -9 65 -22z m-87 -51 c3 -13
-1 -17 -14 -14 -11 2 -20 11 -22 22 -3 13 1 17 14 14 11 -2 20 -11 22 -22z
m-76 -111 l33 -13 -27 -7 c-14 -4 -35 -5 -45 -3 -26 5 -44 49 -36 89 l6 33 18
-42 c13 -30 28 -47 51 -57z m-5 -391 l22 -6 -19 -37 c-10 -21 -26 -78 -35
-127 -20 -104 -29 -124 -55 -124 -26 0 -97 -144 -112 -227 -6 -34 -15 -60 -20
-57 -15 10 -8 150 11 224 13 47 18 90 14 119 -7 60 10 99 76 179 53 62 68 69
118 56z m-121 -36 c-80 -98 -109 -167 -88 -213 17 -38 -24 -154 -63 -176 -63
-36 -73 -34 -86 13 -17 65 -43 109 -93 157 -38 38 -47 42 -61 31 -9 -7 -15 -8
-15 -2 0 19 104 101 175 139 75 39 195 82 234 83 l24 0 -27 -32z m580 -8 c82
-62 109 -103 110 -169 1 -33 10 -75 22 -102 24 -52 38 -144 27 -186 -6 -25
-10 -20 -40 59 -41 104 -81 172 -100 165 -22 -9 -43 15 -55 63 -6 25 -25 69
-41 99 -16 30 -29 67 -29 83 0 42 41 37 106 -12z m186 0 c93 -31 188 -76 188
-88 0 -4 -7 -37 -14 -73 -15 -69 -49 -146 -83 -188 l-20 -25 -47 22 c-25 12
-46 29 -46 37 0 9 -11 37 -24 63 -18 36 -21 53 -14 71 17 48 -23 117 -106 183
l-51 41 65 -7 c36 -4 104 -20 152 -36z m-567 11 c10 -31 53 -53 104 -53 60 1
93 14 119 47 27 35 44 25 30 -16 -22 -63 -173 -93 -245 -49 -32 19 -67 72 -56
84 13 13 42 5 48 -13z m212 4 c-5 -17 -70 -45 -105 -45 -38 0 -92 25 -92 43 0
9 28 12 100 12 62 0 99 -4 97 -10z m-196 -100 c57 -30 208 -8 233 34 4 6 11
11 16 11 13 0 45 -64 64 -129 19 -65 31 -81 62 -81 19 0 30 -12 53 -57 40 -81
89 -223 97 -284 l7 -52 -94 9 c-52 5 -195 9 -319 9 -183 0 -240 -4 -307 -19
-45 -10 -89 -16 -97 -13 -50 19 46 363 108 386 36 14 45 33 67 141 11 57 23
108 25 112 3 4 17 -6 31 -22 14 -17 38 -37 54 -45z m831 -56 c21 -11 62 -39
92 -63 l54 -45 56 23 c31 13 67 33 80 45 43 41 66 15 37 -42 l-18 -35 44 -17
c47 -18 103 -60 103 -77 0 -7 -20 -9 -56 -5 l-56 6 41 -35 c23 -20 41 -40 41
-45 0 -26 -109 13 -110 39 0 17 -17 6 -31 -20 -9 -17 -8 -19 10 -13 22 7 70
-14 92 -41 12 -15 10 -16 -26 -12 -22 3 -49 9 -59 13 -17 7 -18 6 -11 -11 15
-36 18 -74 5 -74 -13 0 -70 57 -70 70 0 4 -15 13 -32 19 -18 7 -46 24 -63 40
-25 23 -42 30 -95 34 -73 7 -159 24 -178 36 -10 6 -6 22 17 71 17 35 36 88 42
117 14 59 16 60 91 22z m-1377 -84 c38 -40 74 -109 81 -157 5 -31 2 -36 -33
-60 -48 -32 -139 -78 -153 -78 -6 0 -15 11 -20 25 -5 14 -14 25 -20 25 -5 0
-10 7 -10 15 0 9 -7 18 -16 22 -22 8 -64 51 -64 66 0 31 158 177 192 177 6 0
25 -16 43 -35z m-378 -171 c21 -14 45 -23 55 -21 10 3 21 1 24 -4 3 -5 13 -9
22 -9 19 0 81 -54 100 -87 23 -43 15 -74 -32 -119 -37 -35 -45 -50 -48 -85 -4
-60 -23 -59 -43 2 l-18 53 -36 -42 c-57 -67 -87 -48 -48 30 17 33 27 42 45 41
30 -4 28 2 -13 26 -19 11 -35 16 -35 11 0 -4 5 -10 12 -12 18 -6 -50 -100 -70
-96 -10 2 -16 10 -15 18 0 8 3 26 5 40 3 22 0 25 -24 22 -16 -1 -28 2 -28 8 0
36 93 155 112 144 5 -3 0 11 -11 32 -40 74 -21 94 46 48z m608 -185 c6 -42 5
-47 -17 -52 -53 -15 -97 -7 -129 21 -27 24 -33 37 -37 86 -5 63 13 96 52 96
12 1 41 12 66 24 l45 24 7 -76 c4 -43 10 -98 13 -123z m-437 158 c2 -12 -3
-17 -17 -17 -12 0 -21 6 -21 13 0 31 32 34 38 4z m42 -37 c0 -21 -24 -28 -35
-10 -8 14 3 30 21 30 8 0 14 -9 14 -20z m28 -43 c2 -10 -3 -17 -12 -17 -18 0
-29 16 -21 31 9 14 29 6 33 -14z m1062 -143 c22 -7 20 -9 -25 -21 -75 -21
-280 -28 -388 -13 -134 18 -146 26 -52 35 44 3 85 8 90 11 16 6 347 -4 375
-12z m-22 -479 c7 -6 -21 -161 -31 -167 -26 -16 -99 -20 -142 -7 -44 13 -45
14 -45 55 0 23 3 61 6 86 l6 45 102 -5 c55 -2 102 -5 104 -7z m-482 -10 c72
-3 99 -8 97 -17 -1 -7 -4 -43 -8 -80 l-6 -67 -55 -11 c-45 -10 -63 -9 -105 5
-37 13 -49 21 -45 32 3 8 6 46 6 84 0 39 4 68 9 65 4 -3 53 -8 107 -11z"/>
<path d="M1403 2144 c-15 -23 -18 -34 -9 -34 15 0 46 32 46 48 0 24 -16 18
-37 -14z"/>
<path d="M1345 2000 c-54 -35 -132 -36 -209 -5 -17 8 -19 5 -13 -28 14 -88
113 -151 191 -121 23 9 20 23 -4 17 -17 -4 -20 0 -20 25 0 39 19 82 36 82 7 0
26 11 41 25 33 29 21 32 -22 5z"/>
<path d="M2137 1418 c-13 -14 -28 -19 -48 -16 -31 5 -39 -6 -13 -16 19 -7 86
23 92 42 6 18 -10 13 -31 -10z"/>
<path d="M192 1218 c5 -16 67 -22 88 -9 22 15 5 24 -18 10 -16 -10 -26 -10
-47 -1 -21 10 -26 10 -23 0z"/>
<path d="M76 1141 c-11 -12 -13 -21 -7 -25 5 -4 15 3 21 15 15 28 7 34 -14 10z"/>
<path d="M1147 422 c-23 -26 -21 -41 8 -54 17 -7 25 -20 26 -37 l2 -26 4 25
c9 47 37 65 46 30 6 -25 30 -26 48 -2 11 14 11 15 -1 5 -19 -17 -40 -16 -40 1
0 22 -17 28 -40 16 -23 -12 -60 -5 -60 12 0 6 7 20 17 30 9 10 14 18 11 18 -3
0 -12 -8 -21 -18z"/>
<path d="M1079 418 c16 -21 8 -48 -14 -48 -8 0 -15 -6 -15 -13 0 -7 -15 -21
-32 -31 -30 -15 -21 -15 17 0 11 5 15 -1 16 -22 1 -16 5 -40 9 -54 5 -15 6 0
3 38 -5 57 -4 65 16 78 26 18 27 37 4 55 -16 13 -17 12 -4 -3z"/>
<path d="M991 373 l-21 -26 -23 21 c-13 12 -27 22 -31 22 -4 0 7 -12 24 -27
l32 -27 20 27 c11 15 25 24 30 21 7 -4 8 -2 4 4 -10 16 -12 16 -35 -15z"/>
<path d="M1441 380 c-13 -11 -19 -20 -14 -20 5 0 13 3 17 8 4 4 13 7 19 7 5 0
12 6 15 13 6 18 -9 14 -37 -8z"/>
<path d="M1367 383 c-3 -5 5 -8 18 -8 13 0 21 3 18 8 -2 4 -10 7 -18 7 -8 0
-16 -3 -18 -7z"/>
<path d="M1446 351 c-3 -5 1 -11 9 -14 9 -4 12 -1 8 9 -6 16 -10 17 -17 5z"/>
<path d="M834 326 c11 -9 24 -16 30 -16 12 0 7 5 -24 19 -24 11 -24 11 -6 -3z"/>
<path d="M1283 313 c15 -2 39 -2 55 0 15 2 2 4 -28 4 -30 0 -43 -2 -27 -4z"/>
<path d="M1454 298 l-19 -23 22 18 c17 15 25 16 43 7 21 -11 21 -12 3 -33
l-18 -22 22 18 c20 18 49 15 38 -3 -3 -4 4 -6 14 -3 10 3 32 -3 47 -13 16 -10
25 -13 19 -7 -8 9 -141 83 -149 83 -2 0 -11 -10 -22 -22z"/>
<path d="M903 303 c15 -2 37 -2 50 0 12 2 0 4 -28 4 -27 0 -38 -2 -22 -4z"/>
<path d="M772 286 c-5 -6 -16 -25 -25 -43 -14 -31 -14 -33 5 -39 11 -3 22 -3
25 0 4 3 -1 6 -10 6 -22 0 -22 16 1 29 9 6 12 11 5 11 -27 0 1 29 30 32 l32 3
-27 6 c-16 4 -32 1 -36 -5z"/>
<path d="M1170 202 c0 -91 0 -92 30 -107 16 -8 37 -15 47 -15 13 1 -46 28 -63
30 -1 0 -2 39 -3 87 -1 48 -3 89 -6 91 -3 3 -5 -36 -5 -86z"/>
<path d="M881 267 c2 -1 13 -9 24 -17 19 -14 19 -14 6 3 -7 9 -18 17 -24 17
-6 0 -8 -1 -6 -3z"/>
<path d="M1410 231 c0 -10 19 -25 25 -20 1 2 -3 10 -11 17 -8 7 -14 8 -14 3z"/>
<path d="M895 219 c-4 -6 -14 -8 -24 -4 -13 5 -14 4 -3 -6 10 -11 15 -10 29 4
10 9 14 17 11 17 -4 0 -10 -5 -13 -11z"/>
<path d="M1068 165 c-1 -30 0 -55 5 -55 4 0 7 25 7 55 0 71 -7 71 -12 0z"/>
<path d="M1676 199 c12 -13 24 -37 28 -53 4 -15 9 -26 11 -24 11 10 -17 74
-37 87 l-23 14 21 -24z"/>
<path d="M675 173 c-22 -19 -30 -30 -18 -24 12 6 37 12 55 12 31 2 32 2 5 6
-28 4 -28 5 -11 24 27 30 13 22 -31 -18z"/>
<path d="M790 196 c0 -2 7 -7 16 -10 8 -3 12 -2 9 4 -6 10 -25 14 -25 6z"/>
<path d="M779 139 c26 -16 36 -18 45 -8 8 9 8 10 -1 5 -7 -4 -23 0 -35 8 -12
9 -27 16 -33 16 -5 0 5 -9 24 -21z"/>
<path d="M606 121 c-10 -11 -16 -26 -13 -33 4 -11 6 -11 6 0 1 10 6 10 23 -2
12 -9 29 -16 38 -16 8 1 0 7 -17 15 -35 15 -40 24 -21 43 7 7 10 12 7 12 -3 0
-14 -9 -23 -19z"/>
<path d="M1283 123 c9 -2 23 -2 30 0 6 3 -1 5 -18 5 -16 0 -22 -2 -12 -5z"/>
<path d="M1648 123 c7 -3 16 -2 19 1 4 3 -2 6 -13 5 -11 0 -14 -3 -6 -6z"/>
<path d="M1453 113 c32 -2 81 -2 110 0 29 2 3 3 -58 3 -60 0 -84 -1 -52 -3z"/>
<path d="M1028 103 c7 -3 16 -2 19 1 4 3 -2 6 -13 5 -11 0 -14 -3 -6 -6z"/>
<path d="M1685 98 c-11 -7 -40 -18 -65 -24 -30 -9 -37 -13 -20 -13 25 -1 110
33 110 44 0 7 -2 6 -25 -7z"/>
<path d="M923 93 c15 -2 37 -2 50 0 12 2 0 4 -28 4 -27 0 -38 -2 -22 -4z"/>
<path d="M868 83 c7 -3 16 -2 19 1 4 3 -2 6 -13 5 -11 0 -14 -3 -6 -6z"/>
<path d="M808 73 c6 -2 18 -2 25 0 6 3 1 5 -13 5 -14 0 -19 -2 -12 -5z"/>
<path d="M1062 64 c-7 -8 -8 -14 -3 -14 10 0 25 19 20 25 -2 1 -10 -3 -17 -11z"/>
<path d="M1288 73 c12 -2 30 -2 40 0 9 3 -1 5 -23 4 -22 0 -30 -2 -17 -4z"/>
<path d="M580 61 c0 -10 39 -46 43 -40 2 2 -7 14 -20 26 -13 12 -23 19 -23 14z"/>
<path d="M713 63 c15 -2 37 -2 50 0 12 2 0 4 -28 4 -27 0 -38 -2 -22 -4z"/>
<path d="M1358 63 c6 -2 18 -2 25 0 6 3 1 5 -13 5 -14 0 -19 -2 -12 -5z"/>
<path d="M1443 53 c26 -2 67 -2 90 0 23 2 2 3 -48 3 -49 0 -68 -1 -42 -3z"/>
<path d="M933 43 c20 -2 54 -2 75 0 20 2 3 4 -38 4 -41 0 -58 -2 -37 -4z"/>
<path d="M840 30 c-20 -6 -21 -8 -5 -8 11 0 29 3 40 8 25 11 -1 11 -35 0z"/>
<path d="M648 13 c6 -2 18 -2 25 0 6 3 1 5 -13 5 -14 0 -19 -2 -12 -5z"/>
<path d="M763 13 c9 -2 25 -2 35 0 9 3 1 5 -18 5 -19 0 -27 -2 -17 -5z"/>
</g>
</svg>
